<svg width="17" height="17" viewBox="0 0 17 17" fill="none" xmlns="http://www.w3.org/2000/svg"> <path d="M8.45222 2.00871C8.86721 2.00871 9.20365 1.67228 9.20365 1.25728C9.20365 0.842287 8.86721 0.505859 8.45222 0.505859V2.00871ZM16.2169 8.27058C16.2169 7.85559 15.8805 7.51916 15.4655 7.51916C15.0505 7.51916 14.7141 7.85559 14.7141 8.27058H16.2169ZM15.4655 2.00871C15.8805 2.00871 16.2169 1.67228 16.2169 1.25728C16.2169 0.842287 15.8805 0.505859 15.4655 0.505859V2.00871ZM11.3698 0.505859C10.9548 0.505859 10.6183 0.842287 10.6183 1.25728C10.6183 1.67228 10.9548 2.00871 11.3698 2.00871V0.505859ZM16.2169 1.25728C16.2169 0.842287 15.8805 0.505859 15.4655 0.505859C15.0505 0.505859 14.7141 0.842287 14.7141 1.25728H16.2169ZM14.7141 5.40615C14.7141 5.82114 15.0505 6.15757 15.4655 6.15757C15.8805 6.15757 16.2169 5.82114 16.2169 5.40615H14.7141ZM15.9968 1.78862C16.2903 1.49518 16.2903 1.01939 15.9968 0.725946C15.7034 0.4325 15.2277 0.4325 14.9342 0.725946L15.9968 1.78862ZM7.92091 7.73927C7.62746 8.03273 7.62746 8.50843 7.92091 8.80189C8.21437 9.09534 8.69007 9.09534 8.98353 8.80189L7.92091 7.73927ZM8.45222 0.505859H5.44652V2.00871H8.45222V0.505859ZM5.44652 0.505859C2.81819 0.505859 0.6875 2.63655 0.6875 5.26488H2.19035C2.19035 3.46654 3.64818 2.00871 5.44652 2.00871V0.505859ZM0.6875 5.26488V11.2763H2.19035V5.26488H0.6875ZM0.6875 11.2763C0.6875 13.9047 2.81819 16.0353 5.44652 16.0353V14.5325C3.64818 14.5325 2.19035 13.0746 2.19035 11.2763H0.6875ZM5.44652 16.0353H11.4579V14.5325H5.44652V16.0353ZM11.4579 16.0353C14.0863 16.0353 16.2169 13.9047 16.2169 11.2763H14.7141C14.7141 13.0746 13.2562 14.5325 11.4579 14.5325V16.0353ZM16.2169 11.2763V8.27058H14.7141V11.2763H16.2169ZM15.4655 0.505859H11.3698V2.00871H15.4655V0.505859ZM14.7141 1.25728V5.40615H16.2169V1.25728H14.7141ZM14.9342 0.725946L7.92091 7.73927L8.98353 8.80189L15.9968 1.78862L14.9342 0.725946Z" fill="white"/> </svg>