<svg width="1841" height="1008" viewBox="0 0 1841 1008" fill="none" xmlns="http://www.w3.org/2000/svg">
<path d="M1638.88 494.119L1839.1 982.399C1844 994.349 1835.21 1007.45 1822.3 1007.45C1758.71 1007.43 1695.11 1007.42 1631.52 1007.4C1624.25 1007.4 1617.68 1003.06 1614.83 996.379C1588.99 935.899 1563.14 875.419 1537.3 814.939C1531.01 800.219 1510.13 800.249 1503.88 814.989C1478.28 875.449 1452.67 935.909 1427.07 996.359C1424.23 1003.08 1417.64 1007.44 1410.35 1007.44C1352.65 1007.43 1294.94 1007.41 1237.24 1007.4C1229.98 1007.4 1223.42 1003.08 1220.56 996.409C1194.8 936.429 1169.05 876.439 1143.29 816.459C1137 801.799 1116.21 801.799 1109.92 816.459C1084.15 876.499 1058.38 936.539 1032.61 996.579C1029.74 1003.25 1023.18 1007.58 1015.91 1007.58L825.23 1007.47C812.35 1007.47 803.57 994.419 808.42 982.479C874.71 819.189 940.99 655.899 1007.28 492.609C1010.06 485.749 1016.73 481.269 1024.12 481.279L1211.78 481.489C1219.73 481.489 1226.75 486.679 1229.1 494.269C1254.89 577.409 1280.68 660.539 1306.47 743.679C1311.76 760.719 1335.88 760.719 1341.16 743.679L1418.3 494.669C1420.67 487.029 1427.75 481.839 1435.74 481.889C1497.89 482.219 1560.04 482.549 1622.19 482.879C1629.52 482.919 1636.11 487.359 1638.89 494.149L1638.88 494.119Z" fill="white"/>
<path d="M832.42 494.31C899.08 656.87 965.74 819.43 1032.39 981.99C1037.37 994.14 1028.44 1007.45 1015.31 1007.45C951.93 1007.43 888.55 1007.42 825.17 1007.4C817.78 1007.4 811.11 1002.99 808.2 996.2C782.47 936 756.75 875.79 731.02 815.59C724.62 800.62 703.4 800.66 697.05 815.65C671.56 875.83 646.08 936.01 620.59 996.19C617.7 1003.02 611 1007.45 603.59 1007.45C546.02 1007.44 488.45 1007.42 430.88 1007.41C423.5 1007.41 416.83 1003.01 413.92 996.23C388.28 936.52 362.64 876.81 337.01 817.1C330.61 802.2 309.49 802.2 303.09 817.1C277.44 876.86 251.78 936.63 226.13 996.39C223.22 1003.17 216.54 1007.57 209.16 1007.57L19.12 1007.46C6.02999 1007.46 -2.89997 994.19 2.03003 982.06C68.23 818.97 134.44 655.88 200.64 492.78C203.47 485.81 210.24 481.26 217.76 481.26L405 481.47C413.08 481.47 420.21 486.74 422.61 494.46C448.28 577.22 473.96 659.98 499.63 742.73C505 760.05 529.52 760.05 534.89 742.73L611.68 494.86C614.08 487.1 621.28 481.82 629.41 481.86C691.42 482.19 753.43 482.52 815.44 482.85C822.89 482.89 829.59 487.41 832.42 494.3V494.31Z" fill="white"/>
<path d="M1743.18 134.419V152.459C1743.18 225.949 1683.57 285.499 1610.09 285.429H1608.75L1608.99 419.749H1592.52C1518.23 419.749 1457.99 359.539 1457.96 285.249L1323.95 285.549L1323.93 267.369C1323.84 193.979 1383.3 134.439 1456.68 134.409H1458.02C1458.01 89.699 1458 44.9991 1457.99 0.289062H1476.09C1549.37 0.289062 1608.73 59.7891 1608.57 133.069V134.409H1743.19L1743.18 134.419Z" fill="white"/>
</svg>
