<svg width="31" height="31" viewBox="0 0 31 31" fill="none" xmlns="http://www.w3.org/2000/svg">
<path d="M15.4996 3.23004C16.3114 3.23004 16.9696 2.57189 16.9696 1.76004C16.9696 0.948187 16.3114 0.290039 15.4996 0.290039V3.23004ZM30.6896 15.48C30.6896 14.6682 30.0314 14.01 29.2196 14.01C28.4077 14.01 27.7496 14.6682 27.7496 15.48H30.6896ZM29.2196 3.23004C30.0314 3.23004 30.6896 2.57189 30.6896 1.76004C30.6896 0.948187 30.0314 0.290039 29.2196 0.290039V3.23004ZM21.2071 0.290039C20.3953 0.290039 19.7371 0.948187 19.7371 1.76004C19.7371 2.57189 20.3953 3.23004 21.2071 3.23004V0.290039ZM30.6896 1.76004C30.6896 0.948187 30.0314 0.290039 29.2196 0.290039C28.4077 0.290039 27.7496 0.948187 27.7496 1.76004H30.6896ZM27.7496 9.8764C27.7496 10.6882 28.4077 11.3464 29.2196 11.3464C30.0314 11.3464 30.6896 10.6882 30.6896 9.8764H27.7496ZM30.259 2.79949C30.833 2.22542 30.833 1.29466 30.259 0.720592C29.6849 0.146527 28.7543 0.146527 28.1802 0.720592L30.259 2.79949ZM14.4602 14.4407C13.8861 15.0147 13.8861 15.9453 14.4602 16.5194C15.0343 17.0935 15.9649 17.0935 16.539 16.5194L14.4602 14.4407ZM15.4996 0.290039H9.61957V3.23004H15.4996V0.290039ZM9.61957 0.290039C4.4778 0.290039 0.30957 4.45827 0.30957 9.60004H3.24957C3.24957 6.08198 6.10151 3.23004 9.61957 3.23004V0.290039ZM0.30957 9.60004V21.36H3.24957V9.60004H0.30957ZM0.30957 21.36C0.30957 26.5019 4.4778 30.67 9.61957 30.67V27.73C6.10151 27.73 3.24957 24.878 3.24957 21.36H0.30957ZM9.61957 30.67H21.3796V27.73H9.61957V30.67ZM21.3796 30.67C26.5214 30.67 30.6896 26.5019 30.6896 21.36H27.7496C27.7496 24.878 24.8976 27.73 21.3796 27.73V30.67ZM30.6896 21.36V15.48H27.7496V21.36H30.6896ZM29.2196 0.290039H21.2071V3.23004H29.2196V0.290039ZM27.7496 1.76004V9.8764H30.6896V1.76004H27.7496ZM28.1802 0.720592L14.4602 14.4407L16.539 16.5194L30.259 2.79949L28.1802 0.720592Z" fill="white"/>
</svg>
