
<svg width="24" height="24" viewBox="0 0 24 24" fill="none" xmlns="http://www.w3.org/2000/svg">
<path d="M20 4.5H16M20 4.5C20 5.06 18.506 6.107 18 6.5M20 4.5C20 3.94 18.506 2.893 18 2.5M2.5 4.5H6.5M2.5 4.5C2.5 3.94 3.994 2.893 4.5 2.5M2.5 4.5C2.5 5.06 3.994 6.107 4.5 6.5M7.367 12.171L9.501 14V4.25C9.501 3.78587 9.68537 3.34075 10.0136 3.01256C10.3418 2.68437 10.7869 2.5 11.251 2.5C11.7151 2.5 12.1602 2.68437 12.4884 3.01256C12.8166 3.34075 13.001 3.78587 13.001 4.25V9.5L15.989 9.978C17.918 10.267 18.882 10.412 19.561 10.818C20.683 11.491 21.496 12.5 21.496 13.974C21.496 15 21.242 15.689 20.626 17.539C20.234 18.713 20.039 19.299 19.72 19.764C19.1947 20.529 18.4198 21.0875 17.528 21.344C16.986 21.5 16.368 21.5 15.13 21.5H14.08C12.436 21.5 11.613 21.5 10.88 21.198C10.7488 21.1439 10.6207 21.0828 10.496 21.015C9.8 20.637 9.281 20 8.244 18.722L4.886 14.588C4.61564 14.2506 4.48059 13.8246 4.50715 13.3931C4.53371 12.9615 4.71999 12.5553 5.02968 12.2536C5.33937 11.9519 5.7503 11.7763 6.18238 11.7611C6.61447 11.7458 7.03677 11.8919 7.367 12.171Z" stroke="white" stroke-width="1.5" stroke-linecap="round" stroke-linejoin="round"/>
</svg>
