
<svg width="31" height="31" viewBox="0 0 31 31" fill="none" xmlns="http://www.w3.org/2000/svg">
<circle cx="15.5" cy="15.5" r="15.5" fill="#E1E5FF"/>
<path opacity="0.2" d="M10.5 19H14.5V20.5C14.5 20.6326 14.4473 20.7598 14.3536 20.8536C14.2598 20.9473 14.1326 21 14 21H11C10.8674 21 10.7402 20.9473 10.6464 20.8536C10.5527 20.7598 10.5 20.6326 10.5 20.5V19ZM21 10H18C17.8674 10 17.7402 10.0527 17.6464 10.1464C17.5527 10.2402 17.5 10.3674 17.5 10.5V20.5C17.5 20.6326 17.5527 20.7598 17.6464 20.8536C17.7402 20.9473 17.8674 21 18 21H21C21.1326 21 21.2598 20.9473 21.3536 20.8536C21.4473 20.7598 21.5 20.6326 21.5 20.5V10.5C21.5 10.3674 21.4473 10.2402 21.3536 10.1464C21.2598 10.0527 21.1326 10 21 10Z" fill="#6378FF"/>
<path d="M21 9.50039H18C17.7348 9.50039 17.4804 9.60575 17.2929 9.79329C17.1054 9.98082 17 10.2352 17 10.5004V20.5004C17 20.7656 17.1054 21.02 17.2929 21.2075C17.4804 21.395 17.7348 21.5004 18 21.5004H21C21.2652 21.5004 21.5196 21.395 21.7071 21.2075C21.8946 21.02 22 20.7656 22 20.5004V10.5004C22 10.2352 21.8946 9.98082 21.7071 9.79329C21.5196 9.60575 21.2652 9.50039 21 9.50039ZM21 20.5004H18V18.5004H19.5C19.6326 18.5004 19.7598 18.4477 19.8536 18.3539C19.9473 18.2602 20 18.133 20 18.0004C20 17.8678 19.9473 17.7406 19.8536 17.6468C19.7598 17.5531 19.6326 17.5004 19.5 17.5004H18V16.0004H19.5C19.6326 16.0004 19.7598 15.9477 19.8536 15.8539C19.9473 15.7602 20 15.633 20 15.5004C20 15.3678 19.9473 15.2406 19.8536 15.1468C19.7598 15.0531 19.6326 15.0004 19.5 15.0004H18V13.5004H19.5C19.6326 13.5004 19.7598 13.4477 19.8536 13.3539C19.9473 13.2602 20 13.133 20 13.0004C20 12.8678 19.9473 12.7406 19.8536 12.6468C19.7598 12.5531 19.6326 12.5004 19.5 12.5004H18V10.5004H21V20.5004ZM12.8538 9.14664C12.8073 9.10016 12.7522 9.06328 12.6915 9.03811C12.6308 9.01295 12.5657 9 12.5 9C12.4343 9 12.3692 9.01295 12.3085 9.03811C12.2478 9.06328 12.1927 9.10016 12.1463 9.14664L10.1463 11.1466C10.0998 11.1931 10.063 11.2483 10.0379 11.309C10.0128 11.3697 9.99995 11.4347 10 11.5004V20.5004C10 20.7656 10.1054 21.02 10.2929 21.2075C10.4804 21.395 10.7348 21.5004 11 21.5004H14C14.2652 21.5004 14.5196 21.395 14.7071 21.2075C14.8946 21.02 15 20.7656 15 20.5004V11.5004C15.0001 11.4347 14.9872 11.3697 14.9621 11.309C14.937 11.2483 14.9002 11.1931 14.8538 11.1466L12.8538 9.14664ZM11 18.5004V12.5004H12V18.5004H11ZM13 12.5004H14V18.5004H13V12.5004ZM12.5 10.2073L13.7931 11.5004H11.2069L12.5 10.2073ZM11 20.5004V19.5004H14V20.5004H11Z" fill="#6378FF"/>
</svg>
