
<svg width="15" height="13" viewBox="0 0 15 13" fill="none" xmlns="http://www.w3.org/2000/svg">
<path d="M12.5 1H2.5C1.67157 1 1 1.67157 1 2.5V10.5C1 11.3284 1.67157 12 2.5 12H12.5C13.3284 12 14 11.3284 14 10.5V2.5C14 1.67157 13.3284 1 12.5 1Z" stroke="#6CF0FF" stroke-linejoin="round"/>
<path d="M10 5C10.5523 5 11 4.55228 11 4C11 3.44772 10.5523 3 10 3C9.44772 3 9 3.44772 9 4C9 4.55228 9.44772 5 10 5Z" stroke="#6CF0FF" stroke-miterlimit="10"/>
<path d="M9 8.99367L6.16687 6.16586C5.98659 5.98562 5.74428 5.88104 5.48947 5.87349C5.23465 5.86594 4.98657 5.95599 4.79594 6.12524L1 9.50024M6.5 12.0002L10.3544 8.14586C10.5306 7.96924 10.7666 7.8649 11.0158 7.85333C11.2651 7.84177 11.5097 7.92382 11.7016 8.08336L14 10.0002" stroke="#6CF0FF" stroke-linecap="round" stroke-linejoin="round"/>
</svg>
