
<svg width="31" height="31" viewBox="0 0 31 31" fill="none" xmlns="http://www.w3.org/2000/svg">
<circle cx="15.5" cy="15.5" r="15.5" fill="#FFDCF0"/>
<path d="M8 9.8125C8 9.59701 8.0856 9.39035 8.23798 9.23798C8.39035 9.0856 8.59701 9 8.8125 9H23.4375C23.653 9 23.8597 9.0856 24.012 9.23798C24.1644 9.39035 24.25 9.59701 24.25 9.8125V21.1875C24.25 21.403 24.1644 21.6097 24.012 21.762C23.8597 21.9144 23.653 22 23.4375 22H8.8125C8.59701 22 8.39035 21.9144 8.23798 21.762C8.0856 21.6097 8 21.403 8 21.1875V9.8125Z" stroke="#FC93FA" stroke-linejoin="round"/>
<path d="M21 9V22M11.25 9V22M21.8125 13.0625H24.25M21.8125 17.9375H24.25M8 13.0625H10.4375M8 12.25V13.875M10.0312 9H12.4688M10.0312 22H12.4688M19.7812 9H22.2188M19.7812 22H22.2188M8 17.9375H10.4375M8 17.125V18.75M24.25 17.125V18.75M24.25 12.25V13.875" stroke="#FC93FA" stroke-linecap="round" stroke-linejoin="round"/>
<path d="M14.9062 13.4688L18.1562 15.5L14.9062 17.5312V13.4688Z" stroke="#FC93FA" stroke-linejoin="round"/>
</svg>
