<svg width="31" height="31" viewBox="0 0 31 31" fill="none" xmlns="http://www.w3.org/2000/svg">
<circle cx="15.5" cy="15.5" r="15.5" fill="#D3FBFF"/>
<path d="M20.5 10H10.5C9.67157 10 9 10.6716 9 11.5V19.5C9 20.3284 9.67157 21 10.5 21H20.5C21.3284 21 22 20.3284 22 19.5V11.5C22 10.6716 21.3284 10 20.5 10Z" stroke="#6CF0FF" stroke-linejoin="round"/>
<path d="M18 14C18.5523 14 19 13.5523 19 13C19 12.4477 18.5523 12 18 12C17.4477 12 17 12.4477 17 13C17 13.5523 17.4477 14 18 14Z" stroke="#6CF0FF" stroke-miterlimit="10"/>
<path d="M17 17.9937L14.1669 15.1659C13.9866 14.9856 13.7443 14.881 13.4895 14.8735C13.2347 14.8659 12.9866 14.956 12.7959 15.1252L9 18.5002M14.5 21.0002L18.3544 17.1459C18.5306 16.9692 18.7666 16.8649 19.0158 16.8533C19.2651 16.8418 19.5097 16.9238 19.7016 17.0834L22 19.0002" stroke="#6CF0FF" stroke-linecap="round" stroke-linejoin="round"/>
</svg>