<svg width="31" height="31" viewBox="0 0 31 31" fill="none" xmlns="http://www.w3.org/2000/svg">
<rect x="6" y="12" width="12" height="7" fill="#D9D9D9"/>
<circle cx="15.5" cy="15.5" r="15.5" fill="#FFC7C7"/>
<path d="M17 19.6996C17.715 19.6996 18.2935 19.1146 18.2935 18.3996L18.3 11.8996C18.3 11.1846 17.715 10.5996 17 10.5996H6.6C5.885 10.5996 5.3 11.1846 5.3 11.8996V18.3996C5.3 19.1146 5.885 19.6996 6.6 19.6996H4.65C4.2925 19.6996 4 19.9921 4 20.3496C4 20.7071 4.2925 20.9996 4.65 20.9996H18.95C19.3075 20.9996 19.6 20.7071 19.6 20.3496C19.6 19.9921 19.3075 19.6996 18.95 19.6996H17ZM7.25 11.8996H16.35C16.7075 11.8996 17 12.1921 17 12.5496V17.7496C17 18.1071 16.7075 18.3996 16.35 18.3996H7.25C6.8925 18.3996 6.6 18.1071 6.6 17.7496V12.5496C6.6 12.1921 6.8925 11.8996 7.25 11.8996Z" fill="#DD6F6F"/>
<path d="M10.7375 14.0174H11.1988V15.4343C11.1988 15.5934 11.1608 15.7326 11.0848 15.8519C11.0095 15.9712 10.904 16.0643 10.7684 16.131C10.6327 16.1971 10.4747 16.2301 10.2943 16.2301C10.1132 16.2301 9.95481 16.1971 9.81916 16.131C9.6835 16.0643 9.57804 15.9712 9.50275 15.8519C9.42747 15.7326 9.38983 15.5934 9.38983 15.4343V14.0174H9.85112V15.3949C9.85112 15.478 9.86923 15.5518 9.90545 15.6165C9.94238 15.6811 9.99423 15.7319 10.061 15.7688C10.1278 15.8058 10.2055 15.8242 10.2943 15.8242C10.3838 15.8242 10.4616 15.8058 10.5276 15.7688C10.5944 15.7319 10.6459 15.6811 10.6821 15.6165C10.719 15.5518 10.7375 15.478 10.7375 15.3949V14.0174ZM12.1108 14.0174L12.5508 14.761H12.5679L13.01 14.0174H13.5309L12.8651 15.1083L13.5458 16.1992H13.0153L12.5679 15.4545H12.5508L12.1034 16.1992H11.575L12.2578 15.1083L11.5877 14.0174H12.1108Z" fill="#DD6F6F"/>
<path d="M21.0617 18.0742C20.9324 18.0742 20.8084 18.1256 20.717 18.217C20.6256 18.3084 20.5742 18.4324 20.5742 18.5617C20.5742 18.691 20.6256 18.815 20.717 18.9064C20.8084 18.9979 20.9324 19.0492 21.0617 19.0492H22.3617C22.491 19.0492 22.615 18.9979 22.7064 18.9064C22.7979 18.815 22.8492 18.691 22.8492 18.5617C22.8492 18.4324 22.7979 18.3084 22.7064 18.217C22.615 18.1256 22.491 18.0742 22.3617 18.0742H21.0617Z" fill="#DD6F6F"/>
<path fill-rule="evenodd" clip-rule="evenodd" d="M19.1119 8C18.724 8 18.352 8.15408 18.0778 8.42836C17.8035 8.70263 17.6494 9.07462 17.6494 9.4625V19.5375C17.6494 19.9254 17.8035 20.2974 18.0778 20.5716C18.352 20.8459 18.724 21 19.1119 21H24.3119C24.6998 21 25.0718 20.8459 25.3461 20.5716C25.6203 20.2974 25.7744 19.9254 25.7744 19.5375V9.4625C25.7744 9.07462 25.6203 8.70263 25.3461 8.42836C25.0718 8.15408 24.6998 8 24.3119 8H19.1119ZM18.6244 9.4625C18.6244 9.33321 18.6758 9.20921 18.7672 9.11779C18.8586 9.02636 18.9826 8.975 19.1119 8.975H24.3119C24.4412 8.975 24.5652 9.02636 24.6566 9.11779C24.7481 9.20921 24.7994 9.33321 24.7994 9.4625V19.5375C24.7994 19.6668 24.7481 19.7908 24.6566 19.8822C24.5652 19.9736 24.4412 20.025 24.3119 20.025H19.1119C18.9826 20.025 18.8586 19.9736 18.7672 19.8822C18.6758 19.7908 18.6244 19.6668 18.6244 19.5375V9.4625Z" fill="#DD6F6F"/>
<path d="M21.7863 12.7186H22.2476V14.1355C22.2476 14.2946 22.2096 14.4338 22.1336 14.5531C22.0583 14.6724 21.9529 14.7654 21.8172 14.8322C21.6816 14.8983 21.5235 14.9313 21.3431 14.9313C21.162 14.9313 21.0036 14.8983 20.868 14.8322C20.7323 14.7654 20.6269 14.6724 20.5516 14.5531C20.4763 14.4338 20.4387 14.2946 20.4387 14.1355V12.7186H20.8999V14.0961C20.8999 14.1792 20.9181 14.253 20.9543 14.3176C20.9912 14.3823 21.0431 14.4331 21.1098 14.47C21.1766 14.5069 21.2544 14.5254 21.3431 14.5254C21.4326 14.5254 21.5104 14.5069 21.5764 14.47C21.6432 14.4331 21.6947 14.3823 21.7309 14.3176C21.7678 14.253 21.7863 14.1792 21.7863 14.0961V12.7186ZM23.1884 12.7186V14.9004H22.7271V12.7186H23.1884Z" fill="#DD6F6F"/>
</svg>