<svg width="31" height="31" viewBox="0 0 31 31" fill="none" xmlns="http://www.w3.org/2000/svg">
<path d="M31 15.5C31 24.0604 24.0604 31 15.5 31C6.93959 31 0 24.0604 0 15.5C0 6.93959 6.93959 0 15.5 0C24.0604 0 31 6.93959 31 15.5Z" fill="#D8FADE"/>
<path fill-rule="evenodd" clip-rule="evenodd" d="M10.5 21.203V12.267H15.954H21.408V21.201C21.4081 21.228 21.4029 21.2547 21.3927 21.2796C21.3824 21.3045 21.3673 21.3272 21.3483 21.3463C21.3292 21.3653 21.3065 21.3804 21.2816 21.3907C21.2567 21.4009 21.23 21.4061 21.203 21.406H10.705C10.678 21.4061 10.6513 21.4009 10.6264 21.3907C10.6015 21.3804 10.5788 21.3653 10.5597 21.3463C10.5407 21.3272 10.5256 21.3045 10.5153 21.2796C10.5051 21.2547 10.4999 21.228 10.5 21.201V21.203ZM9 10.703C9 9.763 9.764 9 10.705 9H21.203C22.145 9 22.908 9.763 22.908 10.705V21.203C22.908 22.145 22.145 22.908 21.203 22.908H10.705C10.4811 22.9081 10.2593 22.8641 10.0524 22.7785C9.84545 22.6928 9.65744 22.5673 9.49909 22.4089C9.34074 22.2506 9.21516 22.0626 9.12952 21.8556C9.04388 21.6487 8.99987 21.4269 9 21.203V10.703Z" fill="#88FF9E"/>
<rect x="11" y="10" width="2" height="1" rx="0.5" fill="white"/>
<rect x="15" y="10" width="6" height="1" rx="0.5" fill="white"/>
</svg>