
<svg width="14" height="14" viewBox="0 0 14 14" fill="none" xmlns="http://www.w3.org/2000/svg">
<path fill-rule="evenodd" clip-rule="evenodd" d="M1.5 12.203V3.267H6.954H12.408V12.201C12.4081 12.228 12.4029 12.2547 12.3927 12.2796C12.3824 12.3045 12.3673 12.3272 12.3483 12.3463C12.3292 12.3653 12.3065 12.3804 12.2816 12.3907C12.2567 12.4009 12.23 12.4061 12.203 12.406H1.705C1.67804 12.4061 1.65133 12.4009 1.62639 12.3907C1.60146 12.3804 1.57881 12.3653 1.55975 12.3463C1.54069 12.3272 1.52559 12.3045 1.51534 12.2796C1.50508 12.2547 1.49987 12.228 1.5 12.201V12.203ZM2.93627e-07 1.703C2.93627e-07 0.763 0.764 0 1.705 0H12.203C13.145 0 13.908 0.763 13.908 1.705V12.203C13.908 13.145 13.145 13.908 12.203 13.908H1.705C1.48106 13.9081 1.25929 13.8641 1.05237 13.7785C0.84545 13.6928 0.65744 13.5673 0.49909 13.4089C0.34074 13.2506 0.215156 13.0626 0.129518 12.8556C0.0438802 12.6487 -0.000131166 12.4269 2.93627e-07 12.203V1.703Z" fill="#88FF9E"/>
<rect x="6.25" y="1.25" width="5.5" height="0.5" rx="0.25" fill="#D9D9D9" stroke="white" stroke-width="0.5"/>
<rect x="2.25" y="1.25" width="1.5" height="0.5" rx="0.25" fill="#D9D9D9" stroke="white" stroke-width="0.5"/>
</svg>
